<?xml version="1.0" standalone="no"?>
<!DOCTYPE svg PUBLIC "-//W3C//DTD SVG 20010904//EN"
 "http://www.w3.org/TR/2001/REC-SVG-20010904/DTD/svg10.dtd">
<svg version="1.0" xmlns="http://www.w3.org/2000/svg"
 width="700.000000pt" height="700.000000pt" viewBox="0 0 700.000000 700.000000"
 preserveAspectRatio="xMidYMid meet">
<metadata>
Created by potrace 1.14, written by Peter Selinger 2001-2017
</metadata>
<g transform="translate(0.000000,700.000000) scale(0.100000,-0.100000)"
fill="#000000" stroke="none">
<path d="M6340 6221 c-58 -27 -188 -86 -290 -131 -102 -45 -222 -100 -268
-121 -46 -22 -85 -39 -87 -39 -2 0 -32 -13 -67 -29 -35 -16 -90 -41 -123 -56
-227 -103 -376 -170 -415 -187 -57 -25 -159 -71 -438 -197 -123 -56 -225 -101
-227 -101 -1 0 -45 -20 -96 -44 -52 -24 -150 -69 -219 -99 -69 -31 -181 -81
-250 -112 -69 -31 -159 -71 -200 -89 -41 -18 -147 -66 -235 -105 -88 -40 -179
-81 -201 -91 -70 -32 -456 -206 -509 -230 -27 -13 -72 -33 -100 -45 -27 -13
-90 -41 -140 -63 -49 -22 -115 -51 -145 -65 -30 -14 -167 -75 -305 -137 -137
-62 -272 -122 -300 -135 -61 -27 -67 -30 -445 -200 -168 -75 -327 -147 -355
-160 -27 -13 -142 -64 -255 -115 -356 -159 -342 -152 -328 -166 7 -6 85 -56
173 -109 191 -117 655 -402 740 -455 90 -56 441 -273 473 -291 15 -9 153 -94
307 -189 154 -95 379 -233 500 -307 121 -75 273 -169 338 -209 65 -41 122 -74
128 -74 5 0 9 -4 9 -9 0 -5 6 -11 13 -13 19 -4 531 -321 535 -330 2 -4 8 -8
13 -8 5 0 55 -29 112 -64 56 -35 221 -136 367 -226 146 -89 292 -179 325 -200
311 -193 488 -300 496 -300 3 0 57 69 120 153 62 83 117 154 121 155 15 7 8
23 -37 80 -25 31 -49 62 -53 67 -19 26 -92 177 -115 240 -32 85 -62 205 -83
323 -8 48 -17 98 -20 112 -25 136 -26 644 0 788 2 9 7 44 12 77 4 33 8 62 9
65 0 3 4 28 9 55 6 41 26 145 41 215 20 95 76 294 114 410 284 859 844 1692
1603 2384 l87 78 -22 34 c-12 19 -62 97 -112 174 -49 77 -92 140 -95 140 -3
-1 -52 -23 -110 -49z m-737 -805 c-10 -13 -50 -66 -90 -117 -40 -52 -76 -98
-80 -104 -40 -49 -273 -393 -273 -402 0 -3 -8 -17 -19 -31 -65 -93 -266 -471
-345 -652 -21 -47 -47 -105 -58 -130 -11 -25 -21 -49 -23 -55 -1 -5 -6 -21
-12 -35 -63 -149 -182 -516 -209 -644 -2 -11 -15 -72 -28 -135 -34 -160 -43
-212 -56 -316 -5 -49 -12 -108 -15 -130 -25 -199 -24 -706 1 -839 2 -11 6 -42
9 -70 7 -64 31 -180 49 -240 8 -25 11 -44 8 -42 -21 12 -1705 1042 -1945 1190
-62 38 -124 76 -139 85 -51 29 -532 324 -583 356 -27 17 -102 63 -165 102 -63
38 -181 111 -262 160 l-147 90 132 61 c142 65 187 86 342 155 55 24 215 96
355 160 140 63 417 188 615 277 198 89 385 173 415 187 30 14 73 33 95 43 22
10 67 30 100 45 33 14 74 33 90 40 17 7 70 32 118 54 49 23 90 41 91 41 2 0
47 20 99 45 53 25 98 45 101 45 2 0 37 15 78 34 40 18 215 98 388 176 173 78
338 152 365 165 28 13 118 53 200 90 336 150 485 217 614 276 35 16 87 39 115
51 28 12 55 25 61 30 20 17 26 7 8 -16z"/>
<path d="M4955 4875 c-38 -19 -110 -53 -160 -76 -49 -22 -119 -55 -155 -71
-36 -17 -90 -42 -120 -55 -30 -14 -100 -47 -155 -73 -55 -26 -149 -70 -210
-98 -60 -27 -150 -69 -200 -93 -49 -23 -92 -43 -95 -44 -5 -1 -28 -12 -215
-100 -55 -26 -124 -58 -152 -71 -29 -13 -79 -36 -110 -51 -32 -15 -60 -27 -63
-28 -3 -1 -45 -21 -95 -44 -114 -54 -175 -83 -355 -166 -80 -37 -183 -85 -230
-107 -47 -22 -107 -51 -135 -63 -27 -13 -97 -45 -155 -72 -58 -27 -192 -89
-298 -138 -105 -49 -192 -92 -192 -96 0 -7 67 -50 410 -267 91 -57 188 -119
215 -137 77 -50 558 -356 579 -369 11 -6 25 -15 30 -19 13 -9 838 -534 996
-633 l66 -41 -18 70 c-36 143 -47 271 -43 522 2 132 7 260 10 285 10 73 34
232 41 270 22 132 83 362 139 525 114 333 327 737 528 1000 74 96 178 225 187
230 9 6 34 46 28 44 -2 0 -34 -15 -73 -34z"/>
</g>
</svg>
